<svg xmlns:dc="http://purl.org/dc/elements/1.1/" xmlns:cc="http://creativecommons.org/ns#" xmlns:rdf="http://www.w3.org/1999/02/22-rdf-syntax-ns#" xmlns:svg="http://www.w3.org/2000/svg" xmlns="http://www.w3.org/2000/svg" xmlns:sodipodi="http://sodipodi.sourceforge.net/DTD/sodipodi-0.dtd" xmlns:inkscape="http://www.inkscape.org/namespaces/inkscape" version="1.1" xml:space="preserve" width="533.72064" height="149.54346" sodipodi:docname="Flysoft Logo small.svg" inkscape:version="0.92.4 (5da689c313, 2019-01-14)"><rect id="backgroundrect" width="100%" height="100%" x="0" y="0" fill="none" stroke="none"/><metadata id="metadata3729"><rdf:RDF><cc:Work rdf:about=""><dc:format>image/svg+xml</dc:format><dc:type rdf:resource="http://purl.org/dc/dcmitype/StillImage"/><dc:title/></cc:Work></rdf:RDF></metadata><defs id="defs3727"/><sodipodi:namedview pagecolor="#ffffff" bordercolor="#666666" borderopacity="1" objecttolerance="10" gridtolerance="10" guidetolerance="10" inkscape:pageopacity="0" inkscape:pageshadow="2" inkscape:window-width="3378" inkscape:window-height="1417" id="namedview3725" showgrid="false" inkscape:zoom="0.20617517" inkscape:cx="238.63315" inkscape:cy="66.466138" inkscape:window-x="54" inkscape:window-y="-8" inkscape:window-maximized="1" inkscape:current-layer="g3731"/><g class="currentLayer" style=""><title>Layer 1</title><g id="g3731" inkscape:groupmode="layer" inkscape:label="Flysoft Logo" class="" fill="#ffffff" fill-opacity="1"><path d="m238.79959236576002,118.86986341494196 c-13.639599659009999,0 -25.632799359179998,-3.48839991279 -35.98746576698,-10.456799738580001 c-1.33266663335,-0.9251999768700003 -1.99493328346,-2.05413328198 -1.99493328346,-3.3867999153299997 c0,-1.02693330766 0.35679999108000005,-2.04546661553 1.0695999732600001,-3.0723999231900003 l6.620266501160001,-8.76773311414 c1.0185333078700003,-1.33266663335 2.1985332783700002,-1.99439995014 3.5307999117300004,-1.99439995014 c1.02733330765,0 1.95253328452,0.25426666031000006 2.76706659749,0.7638666475700001 c3.69213324103,2.05373328199 7.61346647633,3.69213324103 11.76413303923,4.92279987693 c4.150266562910001,1.23053330257 8.13093313006,1.84173328729 11.91639970209,1.84173328729 c3.4885332461200003,0 6.382933173760001,-0.7127999821800002 8.69146644938,-2.1474666129800006 c2.3085332756200003,-1.4343999641400003 3.46319991342,-3.2338665858200004 3.46319991342,-5.38093319881 c0,-1.9521332845300001 -1.07799997305,-3.3951999151200005 -3.2341332524800004,-4.31173322554 c-2.1389332798600003,-0.9169333104100003 -4.92293321026,-1.6383999590400002 -8.300666459150001,-2.1474666129800006 l-4.77013321408,-0.61946665118 c-7.070399823240001,-1.1289333051100001 -12.66359968341,-2.46159993846 -16.76333291425,-3.99799990005 c-4.09919989752,-1.52773329514 -7.84253313727,-3.99759990006 -11.22066638615,-7.375733148940001 c-3.68346657458,-3.68359990791 -5.53399986165,-8.76773311414 -5.53399986165,-15.226666286 c0,-9.64226642561 3.46319991342,-16.50853292062 10.38053307382,-20.60826615146 c6.91759982706,-4.09093323106 15.091199622720001,-6.153333179500001 24.52079938698,-6.153333179500001 c5.95013318458,0 11.45839971354,0.7721333140300001 16.53386625332,2.3085332756200003 c5.0759998731,1.5362666282600002 10.024133082730001,3.8958665692700003 14.83653296242,7.07026648991 c1.4343999641400003,0.8231999794200001 2.1558666127700006,1.9521332845300001 2.1558666127700006,3.3865332486700006 c0,0.9251999768700003 -0.4074666564800001,1.94373328474 -1.23053330257,3.0723999231900003 l-6.459199838520001,8.61493311796 c-1.02693330766,1.33266663335 -2.1982666117100003,1.99493328346 -3.5309332450600004,1.99493328346 c-1.02679997433,0 -2.00306661659,-0.25479999363000005 -2.92839992679,-0.7638666475700001 c-7.069866489920001,-3.79426657181 -13.78386632207,-5.6870665244900005 -20.14106616314,-5.6870665244900005 c-2.7669332641600004,0 -5.30453320072,0.5858666520200001 -7.61346647633,1.7654666225300002 c-2.3085332756200003,1.1798666371700002 -3.4627999134300005,2.69053326607 -3.4627999134300005,4.53239988669 c0,2.2578666102200002 1.4173332979,3.8958665692700003 4.23533322745,4.92279987693 c2.8179999295500004,1.0185333078700003 6.739333164850001,1.90146661913 11.763733039240002,2.61426660131 c8.19933312835,1.4343999641400003 14.267732976640001,2.8519999287000006 18.21479954463,4.23533322745 c3.93826656821,1.3837332987400002 7.4603998134900005,3.7091999072700004 10.54146640313,6.99399982515 c3.27639991809,3.79386657182 4.91453321047,8.97146644238 4.91453321047,15.532399611690002 c0,8.818799779530002 -3.03013325758,15.60866627645 -9.07359977316,20.37013282408 c-6.0430665155900005,4.76186654762 -14.60706630149,7.155333154450001 -25.67506602479,7.155333154450001 zm185.20066203665,-85.19919787002 h22.178266112210004 h0.13559999661000002 h2.8437332622400002 h2.8517332620399998 v-18.443732872240002 c0,-1.4429332972600002 0.4157333229400001,-2.57159993571 1.23053330257,-3.38639991534 c0.8065333131700002,-0.8149333129600002 1.94386661807,-1.2306666359 3.3781332488799998,-1.2306666359 h13.53799966155 c1.4342666308100003,0 2.57146660238,0.4157333229400001 3.3781332488799998,1.2306666359 c0.8147999796300002,0.8147999796300002 1.23053330257,1.96039995099 1.23053330257,3.38639991534 v18.443732872240002 h12.30733302565 c1.4342666308100003,0 2.56319993592,0.4157333229400001 3.3777332488900003,1.2306666359 c0.8235999794100002,0.8234666460800002 1.23093330256,1.9777332838900001 1.23093330256,3.3867999153299997 v10.456799738580001 c0,1.40866663145 -0.4243999893900001,2.57159993571 -1.23093330256,3.3865332486700006 c-0.8061333131800003,0.8061333131800003 -1.9691999507700002,1.23053330257 -3.3777332488900003,1.23053330257 h-12.30733302565 v31.98159920046 c0,4.150266562910001 0.7127999821800002,7.367066482489999 2.0794666146800003,9.45533309695 c1.3750666322900003,2.0877332811400002 4.1759998956,3.1573332544 8.377333123900002,3.1573332544 h1.07799997305 c3.1743999206400004,0 4.77013321408,1.4853332962 4.77013321408,4.456133221930001 v10.15106641289 c0,1.4342666308100003 -0.3903999902400001,2.58893326861 -1.1542666378100002,3.4630665800900005 c-0.77253331402,0.8655999783600001 -1.87586661977,1.35799996605 -3.31053325057,1.45973329684 c-1.33226663336,0.10199999745000002 -3.27613325143,0.15266666285000002 -5.83933318735,0.15266666285000002 c-6.8666664950000005,0 -12.25626636026,-0.5683999857900001 -16.15186626287,-1.6890666244399999 c-3.8958665692700003,-1.1285333051200002 -6.9769331589100005,-3.1827999204300004 -9.22613310268,-6.153466512830001 c-2.2491999437700003,-2.9706665924 -3.3781332488799998,-7.383999815400001 -3.3781332488799998,-13.22373300274 v-43.210665586400005 h-2.8517332620399998 h-2.8437332622400002 h-0.12693333016000005 h-22.18693277866 h-0.13573332994 h-6.12813318013 h-4.481333221300001 v58.8959985276 c0,1.4343999641400003 -0.4074666564800001,2.56333326925 -1.23106663589,3.3781332488799998 c-0.8143999796400002,0.8231999794200001 -1.94333328475,1.2306666359 -3.3777332488900003,1.2306666359 h-13.843599653910001 c-1.4343999641400003,0 -2.56333326925,-0.4074666564800001 -3.3865332486700006,-1.2306666359 c-0.8147999796300002,-0.8147999796300002 -1.22226663611,-1.94373328474 -1.22226663611,-3.3781332488799998 v-58.8959985276 h-4.92279987693 c-1.4343999641400003,0 -2.56333326925,-0.4157333229400001 -3.3865332486700006,-1.23053330257 c-0.8231999794200001,-0.8231999794200001 -1.23053330257,-1.9521332845300001 -1.23053330257,-3.3865332486700006 v-10.456799738580001 c0,-1.4346666308000002 0.4073333231500001,-2.56333326925 1.23053330257,-3.3867999153299997 c0.8231999794200001,-0.8149333129600002 1.9521332845300001,-1.2306666359 3.3865332486700006,-1.2306666359 h4.92279987693 c0.4074666564800001,-10.965866392519999 3.5054665790300006,-19.31786618372 9.30253310077,-25.06386604007 c5.78879985528,-5.73773318989 13.91133298555,-8.60679978483 24.36813272413,-8.60679978483 c1.9521332845300001,0 3.8959999026000003,0.15306666284000003 5.84813318713,0.4585333218700001 c2.86866659495,0.4073333231500001 4.2013332283,2.15573327944 3.99759990006,5.22853320262 l-0.61946665118,9.53159976171 c-0.10213333078000003,2.66493326671 -1.02733330765,3.99759990006 -2.76706659749,3.99759990006 l-3.8449332372100002,-0.15266666285000002 c-5.12653320517,0 -8.6066664515,1.23053330257 -10.456799738580001,3.6918665743700005 c-1.84173328729,2.46159993846 -2.7669332641600004,6.10279984743 -2.7669332641600004,10.915199727120001 h4.481333221300001 h6.12813318013 zm-94.33173097504,85.19919787002 c-8.30093312581,0 -15.965066267540001,-1.98613328368 -22.98439942539,-5.92439985189 c-7.01933315785,-3.94693323466 -12.58733301865,-9.30253310077 -16.68706624949,-16.06706626499 c-4.09919989752,-6.66293316676 -6.153466512830001,-14.04706631549 -6.153466512830001,-22.144266113060002 c0,-7.893599802660001 2.0542666153100004,-15.22693295266 6.153466512830001,-21.99159945021 c4.09973323084,-6.76453316422 9.68466642455,-12.145866363020001 16.76333291425,-16.14346626308 c6.968399825790001,-3.8959999026000003 14.607199634820002,-5.8479998538 22.908132760630004,-5.8479998538 c8.3093331256,0 15.99906626669,1.9773332839000002 23.06946608993,5.92439985189 c7.070399823240001,3.9465332346700004 12.714266348810002,9.30253310077 16.9159995771,16.06706626499 c4.09933323085,6.66253316677 6.153466512830001,13.9959996501 6.153466512830001,21.99159945021 c0,7.89346646933 -2.0794666146800003,15.22653295267 -6.23013317758,21.99159945021 c-4.150266562910001,6.76453316422 -9.76893308911,12.14546636303 -16.839332912350002,16.14346626308 c-7.070399823240001,3.99759990006 -14.760132964330001,6.00066651665 -23.06946608993,6.00066651665 zm0,-67.96906496744 c-4.2013332283,0 -8.10559979736,1.0438666405700001 -11.687466374480001,3.14866658795 c-3.58186657712,2.09653328092 -6.40813317313,4.948533209620001 -8.45359978866,8.53879978653 c-2.0542666153100004,3.79386657182 -3.0727999231800003,7.84253313727 -3.0727999231800003,12.145866363020001 c0,4.60879988478 1.0015999749600002,8.74199978145 2.9963999250900004,12.37493302396 c1.99439995014,3.6325332425200005 4.79546654678,6.484533171220001 8.377333123900002,8.5386664532 c3.5901332435800004,2.1558666127700006 7.536799811580001,3.22506658604 11.840133037330002,3.22506658604 c4.31173322554,0 8.23293312751,-1.05253330702 11.763733039240002,-3.14866658795 c3.5307999117300004,-2.10519994737 6.33186650837,-4.99959987501 8.38599979035,-8.69146644938 c2.04546661553,-3.79426657181 3.0723999231900003,-7.89346646933 3.0723999231900003,-12.29853302587 c0,-4.40506655654 -1.0015999749600002,-8.43706645574 -2.9959999251,-12.06959969826 c-1.99479995013,-3.6411999089700005 -4.79546654678,-6.53546650328 -8.38599979035,-8.69133311605 c-3.5814665771300005,-2.05413328198 -7.528399811790001,-3.0723999231900003 -11.840133037330002,-3.0723999231900003 " style="fill-rule: evenodd; stroke: none;" id="path3733" inkscape:connector-curvature="0" stroke-width="0" fill="#ffffff" fill-opacity="1"/><path d="m32.60106418739008,113.25879688855196 c0,1.4343999641400003 -0.4074666564800001,2.56333326925 -1.23106663589,3.37786658222 c-0.8143999796400002,0.8234666460800002 -1.94333328475,1.23093330256 -3.3777332488900003,1.23093330256 H14.148664648700048 c-1.4343999641400003,0 -2.56333326925,-0.4074666564800001 -3.3865332486700006,-1.23093330256 c-0.8147999796300002,-0.8145333129700002 -1.22226663611,-1.94346661808 -1.22226663611,-3.37786658222 v-58.8959985276 h-4.92279987693 c-1.4343999641400003,0 -2.56333326925,-0.4157333229400001 -3.3865332486700006,-1.23053330257 c-0.8230666460900001,-0.8235999794100002 -1.23053330257,-1.9521332845300001 -1.23053330257,-3.38693324866 v-10.456799738580001 c0,-1.4342666308100003 0.4074666564800001,-2.56319993592 1.23053330257,-3.38639991534 c0.8231999794200001,-0.8149333129600002 1.9521332845300001,-1.2306666359 3.3865332486700006,-1.2306666359 h4.92279987693 c0.4074666564800001,-10.965866392519999 3.5054665790300006,-19.31786618372 9.30253310077,-25.06386604007 c5.78879985528,-5.73773318989 13.91133298555,-8.60679978483 24.36813272413,-8.60679978483 c1.9521332845300001,0 3.8959999026000003,0.15306666284000003 5.84813318713,0.4585333218700001 c2.86866659495,0.4073333231500001 4.2013332283,2.15573327944 3.99759990006,5.2281332026300005 l-0.61946665118,9.5319997617 c-0.10213333078000003,2.66493326671 -1.02733330765,3.99759990006 -2.76706659749,3.99759990006 l-3.8449332372100002,-0.15266666285000002 c-5.12653320517,0 -8.6066664515,1.2306666359 -10.456799738580001,3.6918665743700005 c-1.84173328729,2.46159993846 -2.7669332641600004,6.10279984743 -2.7669332641600004,10.915199727120001 h10.609466401430002 c1.4343999641400003,0 2.56333326925,0.4157333229400001 3.3865332486700006,1.2306666359 c0.8147999796300002,0.8231999794200001 1.23053330257,1.9521332845300001 1.23053330257,3.38639991534 v10.456799738580001 c0,1.4347999641300002 -0.4157333229400001,2.56333326925 -1.23053330257,3.38693324866 c-0.8231999794200001,0.8147999796300002 -1.9521332845300001,1.23053330257 -3.3865332486700006,1.23053330257 h-10.609466401430002 zm487.21665448625004,-24.47013272158 c7.664399808390001,0 13.90293298576,6.238533177370001 13.90293298576,13.90293298576 c0,7.681199807970001 -6.238533177370001,13.919732985340001 -13.90293298576,13.919732985340001 c-7.681199807970001,0 -13.919732985340001,-6.238533177370001 -13.919732985340001,-13.919732985340001 c0,-7.664399808390001 6.238533177370001,-13.90293298576 13.919732985340001,-13.90293298576 zm-372.17505736229003,57.21519856962 c-0.9251999768700003,2.3595999410100004 -2.6653332667000003,3.5395999115100003 -5.22853320262,3.5395999115100003 h-15.68506627454 c-2.66493326671,0 -3.99759990006,-1.07799997305 -3.99759990006,-3.2254665860300005 c0,-0.61946665118 0.15266666285000002,-1.33226663336 0.4579999885500001,-2.1558666127700006 l12.30733302565,-29.367332599150004 l-33.83173248754,-75.81986477117 c-0.30573332569000006,-0.8149333129600002 -0.45839998854000014,-1.5874666269800002 -0.45839998854000014,-2.3002666091600004 c0,-0.9251999768700003 0.33106665839000005,-1.67213329153 0.9929333085100003,-2.2321332775300005 c0.67079998323,-0.5605333193200001 1.6213332928,-0.8489333121100002 2.84359992891,-0.8489333121100002 h16.92439957689 c2.5545332694700003,0 4.30293322576,1.1795999705100002 5.2198665361700005,3.53919991152 l19.99679950008,50.28959874276 l18.299332875850002,-50.13653207992001 c0.8147999796300002,-2.46159993846 2.61426660131,-3.6922665743600005 5.38119986547,-3.6922665743600005 h16.76306624759 c1.33266663335,0 2.3594666076800004,0.31399999215 3.0726665898500003,0.9251999768700003 c0.7215999819600001,0.61119998472 1.07799997305,1.4343999641400003 1.07799997305,2.46119993847 c0,0.5094666539300001 -0.15266666285000002,1.1799999705000002 -0.4585333218700001,1.99493328346 zm-75.91373143549,-28.13626596326 c-1.4342666308100003,0 -2.56319993592,-0.41613332293000005 -3.38639991534,-1.23093330256 c-0.8235999794100002,-0.8231999794200001 -1.2306666359,-1.9521332845300001 -1.2306666359,-3.3865332486700006 v-107.02933065760001 c0,-1.4343999641400003 0.4070666564900001,-2.56333326925 1.2306666359,-3.37826658221 c0.8231999794200001,-0.8230666460900001 1.9521332845300001,-1.23053330257 3.38639991534,-1.23053330257 h13.835066320790002 c1.4429332972600002,0 2.56319993592,0.4074666564800001 3.38639991534,1.23053330257 c0.8235999794100002,0.8149333129600002 1.2306666359,1.94386661807 1.2306666359,3.37826658221 v107.02933065760001 c0,1.4343999641400003 -0.4070666564900001,2.56333326925 -1.2306666359,3.3865332486700006 c-0.8231999794200001,0.8147999796300002 -1.94346661808,1.23093330256 -3.38639991534,1.23093330256 z" style="fill-rule: evenodd; stroke: none;" id="path3735" inkscape:connector-curvature="0" stroke-width="0" fill="#ffffff" fill-opacity="1"/></g></g></svg>